<?xml version="1.0" encoding="utf-8"?>
<!-- Generator: Adobe Illustrator 16.0.0, SVG Export Plug-In . SVG Version: 6.00 Build 0)  -->
<!DOCTYPE svg PUBLIC "-//W3C//DTD SVG 1.1//EN" "http://www.w3.org/Graphics/SVG/1.1/DTD/svg11.dtd">
<svg version="1.1" id="Layer_1" xmlns="http://www.w3.org/2000/svg" xmlns:xlink="http://www.w3.org/1999/xlink" x="0px" y="0px"
	 width="52.09px" height="52px" viewBox="62.424 0 52.09 52" enable-background="new 62.424 0 52.09 52" xml:space="preserve">
<g>
	<path fill="#FFFFFF" d="M89.041,0.511c-14.072,0-25.479,11.406-25.479,25.473c0,14.075,11.406,25.48,25.479,25.48
		c14.068,0,25.473-11.405,25.473-25.48C114.514,11.917,103.11,0.511,89.041,0.511z M89.041,45.668
		c-10.872,0-19.685-8.814-19.685-19.684c0-10.867,8.812-19.681,19.685-19.681c10.869,0,19.681,8.814,19.681,19.681
		C108.722,36.854,99.91,45.668,89.041,45.668z"/>
	<g>
		<path fill="#FFFFFF" d="M99.024,28.751c0,5.511-4.47,9.983-9.985,9.983c-5.517,0-9.987-4.474-9.987-9.983
			c0-5.52,4.471-9.989,9.987-9.989C94.555,18.763,99.024,23.232,99.024,28.751z"/>
		<path fill="#FFFFFF" d="M89.038,11.275c0,0-0.433,4.732-6.146,9.604c-5.712,4.876,6.146,12.364,6.146,12.364
			s12.563-7.183,6.349-12.207C89.163,16.018,89.038,11.275,89.038,11.275z"/>
	</g>
</g>
</svg>
